/* XPM */
static char * close_prelight_xpm[] = {
"32 32 35 1",
" 	c None",
".	c #FFFFFF",
"+	c #E8E5E2",
"@	c #B6ADA0",
"#	c #948674",
"$	c #84745F",
"%	c #B6ADA1",
"&	c #E9E6E2",
"*	c #FBFBFA",
"=	c #B3AA9D",
"-	c #7F6F59",
";	c #7E6E58",
">	c #80705A",
",	c #B4AB9E",
"'	c #FCFCFB",
")	c #9F9383",
"!	c #9F9483",
"~	c #B3A99C",
"{	c #B5AB9F",
"]	c #EFEDEA",
"^	c #9E9282",
"/	c #E9E7E3",
"(	c #9C907F",
"_	c #F4F2F1",
":	c #B7AEA2",
"<	c #938674",
"[	c #948775",
"}	c #847560",
"|	c #857561",
"1	c #857661",
"2	c #B8AFA3",
"3	c #EAE7E3",
"4	c #A09484",
"5	c #A09585",
"6	c #FCFCFC",
"................................",
"................................",
"................................",
"................................",
"................................",
"................................",
"................................",
"................................",
"............+@#$$#%&............",
"..........*=-;;;;;;>,'..........",
".........*);;;;;;;;;;!'.........",
".........~;;$;;;;;;$;;{.........",
"........+-;$]^;;;;^]$;>/........",
"........@;;;(_!;;(_!;;;:........",
"........<;;;;(_!(_!;;;;[........",
"........};;;;;^__^;;;;;|........",
"........|;;;;;^__^;;;;;1........",
"........<;;;;(_!(_!;;;;[........",
"........%;;;(_!;;(_!;;;2........",
"........&>;$]^;;;;^]$;>3........",
".........,;;$;;;;;;$;;@.........",
".........'4;;;;;;;;;;56.........",
"..........'{>;;;;;;>@6..........",
"............/:[}}[23............",
"................................",
"................................",
"................................",
"................................",
"................................",
"................................",
"................................",
"................................"};
