/* XPM */
static char * close_inactive_xpm[] = {
"32 32 24 1",
" 	c None",
".	c #FFFFFF",
"+	c #F1F1F2",
"@	c #D2D3D5",
"#	c #BCBFC2",
"$	c #B2B5B9",
"%	c #D2D4D6",
"&	c #F1F2F2",
"*	c #FDFDFD",
"=	c #D0D2D4",
"-	c #B0B3B7",
";	c #AFB2B6",
">	c #D1D2D5",
",	c #C3C6C9",
"'	c #C4C6C9",
")	c #D0D1D4",
"!	c #D1D3D5",
"~	c #F2F2F3",
"{	c #BDBFC3",
"]	c #B3B6B9",
"^	c #B3B6BA",
"/	c #D3D4D7",
"(	c #C4C7C9",
"_	c #FDFDFE",
"................................",
"................................",
"................................",
"................................",
"................................",
"................................",
"................................",
"................................",
"............+@#$$#%&............",
"..........*=-;;;;;;->*..........",
".........*,;;;;;;;;;;'*.........",
".........);;;;;;;;;;;;!.........",
"........+-;;;;;;;;;;;;-~........",
"........@;;;;;;;;;;;;;;%........",
"........#;;;;;;;;;;;;;;{........",
"........];;;;;;;;;;;;;;^........",
"........^;;;;;;;;;;;;;;^........",
"........#;;;;;;;;;;;;;;{........",
"........%;;;;;;;;;;;;;;/........",
"........&-;;;;;;;;;;;;-~........",
".........>;;;;;;;;;;;;@.........",
".........*';;;;;;;;;;(_.........",
"..........*!-;;;;;;-@_..........",
"............~%{]]{/~............",
"................................",
"................................",
"................................",
"................................",
"................................",
"................................",
"................................",
"................................"};
