/* XPM */
static char * maximize_prelight_xpm[] = {
"32 32 31 1",
" 	c None",
".	c #FFFFFF",
"+	c #DBDFDF",
"@	c #8B9998",
"#	c #556968",
"$	c #3C5351",
"%	c #8C9998",
"&	c #DCE0E0",
"*	c #F9FAFA",
"=	c #879594",
"-	c #354C4A",
";	c #334B49",
">	c #354D4B",
",	c #899795",
"'	c #FAFBFB",
")	c #677977",
"!	c #687A78",
"~	c #869493",
"{	c #899796",
"]	c #DDE1E0",
"^	c #8D9B9A",
"/	c #556967",
"(	c #566A68",
"_	c #3D5352",
":	c #3D5452",
"<	c #3E5553",
"[	c #8E9B9A",
"}	c #DDE1E1",
"|	c #697A79",
"1	c #697B7A",
"2	c #FBFBFB",
"................................",
"................................",
"................................",
"................................",
"................................",
"................................",
"................................",
"................................",
"............+@#$$#%&............",
"..........*=-;;;;;;>,'..........",
".........*);;;;;;;;;;!'.........",
".........~;;;;;;;;;;;;{.........",
"........+-;;........;;>]........",
"........@;;;.;;;;;;.;;;^........",
"......../;;;.;;;;;;.;;;(........",
"........_;;;.;;;;;;.;;;:........",
"........:;;;.;;;;;;.;;;<........",
"......../;;;.;;;;;;.;;;(........",
"........%;;;.;;;;;;.;;;[........",
"........&>;;........;;>}........",
".........,;;;;;;;;;;;;@.........",
".........'|;;;;;;;;;;12.........",
"..........'{>;;;;;;>@2..........",
"............]^(__([}............",
"................................",
"................................",
"................................",
"................................",
"................................",
"................................",
"................................",
"................................"};
