/* XPM */
static char *menu_xpm[] = {
"32 32 30 1",
" 	c None",
"B	c #FFFFFF",
"C	c #DCEAE9",
"D	c #8EBBB8",
"E	c #5A9C97",
"F	c #428D87",
"G	c #8FBCB8",
"H	c #DDEAE9",
"I	c #FAFCFC",
"J	c #8BB9B5",
"K	c #3B8983",
"L	c #398882",
"M	c #8CBAB6",
"N	c #6BA6A2",
"O	c #6CA7A2",
"P	c #8AB9B5",
"Q	c #8DBAB7",
"R	c #B1D0CD",
"S	c #DEEBEA",
"T	c #61A09B",
"U	c #91BDB9",
"V	c #5B9D98",
"W	c #428E88",
"X	c #88B8B4",
"Y	c #438E88",
"Z	c #448F89",
"a	c #92BDBA",
"b	c #6DA7A3",
"c	c #6EA8A3",
"d	c #FBFDFD",
"BBBBBBBBBBBBBBBBBBBBBBBBBBBBBBBB",
"BBBBBBBBBBBBBBBBBBBBBBBBBBBBBBBB",
"BBBBBBBBBBBBBBBBBBBBBBBBBBBBBBBB",
"BBBBBBBBBBBBBBBBBBBBBBBBBBBBBBBB",
"BBBBBBBBBBBBBBBBBBBBBBBBBBBBBBBB",
"BBBBBBBBBBBBBBBBBBBBBBBBBBBBBBBB",
"BBBBBBBBBBBBBBBBBBBBBBBBBBBBBBBB",
"BBBBBBBBBBBBBBBBBBBBBBBBBBBBBBBB",
"BBBBBBBBBBBBCDEFFEGHBBBBBBBBBBBB",
"BBBBBBBBBBIJKLLLLLLKMIBBBBBBBBBB",
"BBBBBBBBBINLLLLLLLLLLOIBBBBBBBBB",
"BBBBBBBBBPLLLLLLLLLLLLQBBBBBBBBB",
"BBBBBBBBCKLLIIIIIIIILLKSBBBBBBBB",
"BBBBBBBBDLLLLLLLLLLLLLLUBBBBBBBB",
"BBBBBBBBELLLLLLLLLLLLLLVBBBBBBBB",
"BBBBBBBBWLLLIIIIIIIILLLYBBBBBBBB",
"BBBBBBBBYLLLLLLLLLLLLLLZBBBBBBBB",
"BBBBBBBBELLLLLLLLLLLLLLVBBBBBBBB",
"BBBBBBBBGLLLIIIIIIIILLLaBBBBBBBB",
"BBBBBBBBHKLLLLLLLLLLLLKSBBBBBBBB",
"BBBBBBBBBMLLLLLLLLLLLLDBBBBBBBBB",
"BBBBBBBBBIbLLLLLLLLLLcdBBBBBBBBB",
"BBBBBBBBBBIQKLLLLLLKDdBBBBBBBBBB",
"BBBBBBBBBBBBSUVWWVaSBBBBBBBBBBBB",
"BBBBBBBBBBBBBBBBBBBBBBBBBBBBBBBB",
"BBBBBBBBBBBBBBBBBBBBBBBBBBBBBBBB",
"BBBBBBBBBBBBBBBBBBBBBBBBBBBBBBBB",
"BBBBBBBBBBBBBBBBBBBBBBBBBBBBBBBB",
"BBBBBBBBBBBBBBBBBBBBBBBBBBBBBBBB",
"BBBBBBBBBBBBBBBBBBBBBBBBBBBBBBBB",
"BBBBBBBBBBBBBBBBBBBBBBBBBBBBBBBB",
"BBBBBBBBBBBBBBBBBBBBBBBBBBBBBBBB"
};
