/* XPM */
static char * shade_prelight_xpm[] = {
"32 32 41 1",
" 	c None",
".	c #FFFFFF",
"+	c #DCEAE9",
"@	c #8EBBB8",
"#	c #5A9C97",
"$	c #428D87",
"%	c #8FBCB8",
"&	c #DDEAE9",
"*	c #FAFCFC",
"=	c #8BB9B5",
"-	c #3B8983",
";	c #398882",
">	c #8CBAB6",
",	c #6BA6A2",
"'	c #6CA7A2",
")	c #8AB9B5",
"!	c #8DBAB7",
"~	c #DEEBEA",
"{	c #408C86",
"]	c #91BDB9",
"^	c #428E88",
"/	c #96C0BD",
"(	c #5B9D98",
"_	c #76ACA8",
":	c #DBE9E8",
"<	c #97C0BD",
"[	c #438E88",
"}	c #47908B",
"|	c #BED8D6",
"1	c #B6D3D1",
"2	c #49918C",
"3	c #448F89",
"4	c #63A19C",
"5	c #D8E8E6",
"6	c #73ABA7",
"7	c #5C9D98",
"8	c #49928C",
"9	c #92BDBA",
"0	c #6DA7A3",
"a	c #6EA8A3",
"b	c #FBFDFD",
"................................",
"................................",
"................................",
"................................",
"................................",
"................................",
"................................",
"................................",
"............+@#$$#%&............",
"..........*=-;;;;;;->*..........",
".........*,;;;;;;;;;;'*.........",
".........);;;;;;;;;;;;!.........",
"........+-;;;;;;;;;;;;-~........",
"........@;;;;;;{{;;;;;;]........",
"........#;;;;^/&&/^;;;;(........",
"........^;;;_:<^^<:_;;;[........",
"........[;}|12;;;;21|};3........",
"........#456;;;;;;;;654(........",
"........%78;;;;;;;;;;879........",
"........&-;;;;;;;;;;;;-~........",
".........>;;;;;;;;;;;;@.........",
".........*0;;;;;;;;;;ab.........",
"..........*!-;;;;;;-@b..........",
"............~](^^(9~............",
"................................",
"................................",
"................................",
"................................",
"................................",
"................................",
"................................",
"................................"};
