/* XPM */
static char * stick_toggled_prelight_xpm[] = {
"32 32 35 1",
" 	c None",
".	c #FFFFFF",
"+	c #DCEAE9",
"@	c #8EBBB8",
"#	c #5A9C97",
"$	c #428D87",
"%	c #8FBCB8",
"&	c #DDEAE9",
"*	c #FAFCFC",
"=	c #8BB9B5",
"-	c #3B8983",
";	c #398882",
">	c #8CBAB6",
",	c #6BA6A2",
"'	c #6CA7A2",
")	c #8AB9B5",
"!	c #8DBAB7",
"~	c #DEEBEA",
"{	c #458F8A",
"]	c #88B8B4",
"^	c #91BDB9",
"/	c #E6F0EF",
"(	c #E5F0EF",
"_	c #5B9D98",
":	c #428E88",
"<	c #438E88",
"[	c #89B8B4",
"}	c #87B7B4",
"|	c #448F89",
"1	c #E5EFEE",
"2	c #458F89",
"3	c #92BDBA",
"4	c #6DA7A3",
"5	c #6EA8A3",
"6	c #FBFDFD",
"................................",
"................................",
"................................",
"................................",
"................................",
"................................",
"................................",
"................................",
"............+@#$$#%&............",
"..........*=-;;;;;;->*..........",
".........*,;;;;;;;;;;'*.........",
".........);;;;;;;;;;;;!.........",
"........+-;;;;;;;;;;;;-~........",
"........@;;;;;{]]{;;;;;^........",
"........#;;;;{/..({;;;;_........",
"........:;;;;)....];;;;<........",
"........<;;;;[....};;;;|........",
"........#;;;;{(..12;;;;_........",
"........%;;;;;{}}2;;;;;3........",
"........&-;;;;;;;;;;;;-~........",
".........>;;;;;;;;;;;;@.........",
".........*4;;;;;;;;;;56.........",
"..........*!-;;;;;;-@6..........",
"............~^_::_3~............",
"................................",
"................................",
"................................",
"................................",
"................................",
"................................",
"................................",
"................................"};
