/* XPM */
static char * stick_prelight_xpm[] = {
"32 32 30 1",
" 	c None",
".	c #FFFFFF",
"+	c #DCEAE9",
"@	c #8EBBB8",
"#	c #5A9C97",
"$	c #428D87",
"%	c #8FBCB8",
"&	c #DDEAE9",
"*	c #FAFCFC",
"=	c #8BB9B5",
"-	c #3B8983",
";	c #398882",
">	c #8CBAB6",
",	c #6BA6A2",
"'	c #6CA7A2",
")	c #8AB9B5",
"!	c #8DBAB7",
"~	c #DEEBEA",
"{	c #91BDB9",
"]	c #80B3AF",
"^	c #5B9D98",
"/	c #428E88",
"(	c #81B3B0",
"_	c #438E88",
":	c #80B2AF",
"<	c #448F89",
"[	c #92BDBA",
"}	c #6DA7A3",
"|	c #6EA8A3",
"1	c #FBFDFD",
"................................",
"................................",
"................................",
"................................",
"................................",
"................................",
"................................",
"................................",
"............+@#$$#%&............",
"..........*=-;;;;;;->*..........",
".........*,;;;;;;;;;;'*.........",
".........);;;;;;;;;;;;!.........",
"........+-;;;;;;;;;;;;-~........",
"........@;;;;;;;;;;;;;;{........",
"........#;;;;;-]]-;;;;;^........",
"......../;;;;;(..];;;;;_........",
"........_;;;;;]..:;;;;;<........",
"........#;;;;;-::-;;;;;^........",
"........%;;;;;;;;;;;;;;[........",
"........&-;;;;;;;;;;;;-~........",
".........>;;;;;;;;;;;;@.........",
".........*};;;;;;;;;;|1.........",
"..........*!-;;;;;;-@1..........",
"............~{^//^[~............",
"................................",
"................................",
"................................",
"................................",
"................................",
"................................",
"................................",
"................................"};
